<svg id="_x33_0" enable-background="new 0 0 64 64" height="512" viewBox="0 0 64 64" width="512" xmlns="http://www.w3.org/2000/svg"><g><path d="m58 1h-1c-1.103 0-2 .897-2 2h-12.704c-2.068-1.31-4.448-2-6.901-2h-15.037c-2.223 0-4.292.746-5.968 2h-5.39c0-1.103-.897-2-2-2h-1c-2.757 0-5 2.243-5 5s2.243 5 5 5h1c1.103 0 2-.897 2-2h1.571c-.085.413-.153.831-.185 1.261l-3.379 45.606c-.004.069-.007.136-.007.204 0 1.616 1.313 2.929 2.929 2.929h1.482c1.056 0 1.978.714 2.242 1.736.346 1.333 1.549 2.264 2.925 2.264 6.38 0 12.618-1.201 18.541-3.57l4.591-1.836c1.392-.557 2.29-1.885 2.29-3.384 0-.196-.017-.392-.05-.585l-1.02-5.972 3.847-1.923c1.371-.686 2.223-2.064 2.223-3.597 0-.118-.005-.235-.016-.354l-2.892-32.779h10.908c0 1.103.897 2 2 2h1c2.757 0 5-2.243 5-5s-2.243-5-5-5zm-51 8h-1c-1.654 0-3-1.346-3-3s1.346-3 3-3h1zm2-2v-2h3.377c-.464.614-.852 1.287-1.167 2zm3.38 3.409c.308-4.155 3.812-7.409 7.978-7.409h15.036c1.188 0 2.357.192 3.468.564-3.42 1.277-5.862 4.577-5.862 8.436v.322c0 .507.043 1.017.129 1.514l5.161 30.23-9.39.939.199 1.99 9.528-.953.847 4.958h-30.101l.445-6h3.182v-2h-3.035zm26.588 45.327-4.591 1.836c-5.687 2.275-11.675 3.428-17.799 3.428-.465 0-.872-.315-.989-.766-.492-1.904-2.211-3.234-4.178-3.234h-1.482c-.512 0-.929-.417-.927-.997l.222-3.003h30.591l.164.961c.014.082.021.166.021.249 0 .677-.405 1.275-1.032 1.526zm4.915-11.796-3.304 1.652-.689-4.035 4.958-1.239.144 1.637c.005.06.008.118.008.178 0 .77-.428 1.463-1.117 1.807zm.787-5.638-5.117 1.279-4.453-26.082c-.066-.387-.1-.782-.1-1.177v-.322c0-1.074.251-2.089.685-3h6.399zm-7.559-31.302c1.263-1.235 2.987-2 4.889-2h13v2zm20.889 2h-1v-6h1c1.654 0 3 1.346 3 3s-1.346 3-3 3z"/><path d="m17 13.831c0-3.247 1.729-6.303 4.515-7.974l-1.029-1.715c-3.384 2.031-5.486 5.744-5.486 9.689v3.169h2z"/><path d="m15 21h2v26h-2z"/><path d="m25 23h2v4h-2z"/><path d="m38.5 16.969h2v8.062h-2z" transform="matrix(.992 -.124 .124 .992 -2.3 5.062)"/><path d="m21.414 43-1.707-1.707-1.414 1.414 2.293 2.293h4.414v4h2v-18h-2v12z"/></g></svg>