<svg height="512" viewBox="0 0 38 60" width="512" xmlns="http://www.w3.org/2000/svg"><g id="Page-1" fill="none" fill-rule="evenodd"><g id="006---Boiler" fill="rgb(0,0,0)" fill-rule="nonzero"><path id="Shape" d="m3 54h3v4c0 1.1045695.8954305 2 2 2h2c1.1045695 0 2-.8954305 2-2v-4h14v4c0 1.1045695.8954305 2 2 2h2c1.1045695 0 2-.8954305 2-2v-4h3c1.6568542 0 3-1.3431458 3-3v-44c0-1.65685425-1.3431458-3-3-3h-11.22l-.621-2.485c-.2225301-.89025923-1.0223502-1.51486106-1.94-1.515h-4.438c-.9176498.00013894-1.7174699.62474077-1.94 1.515l-.621 2.485h-11.22c-1.65685425 0-3 1.34314575-3 3v44c0 1.6568542 1.34314575 3 3 3zm7 4h-2v-4h2zm20 0h-2v-4h2zm-13.219-56h4.438l.5 2h-5.438zm-13.781 4h32c.5522847 0 1 .44771525 1 1v37h-7c-.5522847 0-1 .4477153-1 1s.4477153 1 1 1h7v5c0 .5522847-.4477153 1-1 1h-32c-.55228475 0-1-.4477153-1-1v-5h23c.5522847 0 1-.4477153 1-1s-.4477153-1-1-1h-23v-37c0-.55228475.44771525-1 1-1z"/><circle id="Oval" cx="5" cy="49" r="1"/><path id="Shape" d="m18 48h-8c-.55228475 0-1 .4477153-1 1s.44771525 1 1 1h8c.5522847 0 1-.4477153 1-1s-.4477153-1-1-1z"/><path id="Shape" d="m5 11c.55228475 0 1-.4477153 1-1v-1c0-.55228475-.44771525-1-1-1s-1 .44771525-1 1v1c0 .5522847.44771525 1 1 1z"/><path id="Shape" d="m5 30c.55228475 0 1-.4477153 1-1v-15c0-.5522847-.44771525-1-1-1s-1 .4477153-1 1v15c0 .5522847.44771525 1 1 1z"/></g></g></svg>