<?xml version="1.0" encoding="iso-8859-1"?>
<!-- Generator: Adobe Illustrator 19.0.0, SVG Export Plug-In . SVG Version: 6.00 Build 0)  -->
<svg version="1.1" id="Capa_1" xmlns="http://www.w3.org/2000/svg" xmlns:xlink="http://www.w3.org/1999/xlink" x="0px" y="0px"
	 viewBox="0 0 512 512" style="enable-background:new 0 0 512 512;" xml:space="preserve">
<g>
	<g>
		<path d="M504.485,88.172H7.515C3.364,88.172,0,91.537,0,95.687v320.626c0,4.15,3.364,7.515,7.515,7.515h496.971
			c4.151,0,7.515-3.365,7.515-7.515V95.687C512,91.537,508.636,88.172,504.485,88.172z M384.751,408.798H15.029V103.202h369.722
			V408.798z M496.971,408.798h-97.19V103.202h97.19V408.798z"/>
	</g>
</g>
<g>
	<g>
		<path d="M352.188,152.297h-39.577c-4.151,0-7.515,3.365-7.515,7.515s3.364,7.515,7.515,7.515h32.063v177.346H55.108V167.327
			H276.54c4.151,0,7.515-3.365,7.515-7.515s-3.364-7.515-7.515-7.515H47.593c-4.151,0-7.515,3.365-7.515,7.515v192.376
			c0,4.15,3.364,7.515,7.515,7.515h304.595c4.151,0,7.515-3.365,7.515-7.515V159.812
			C359.703,155.662,356.339,152.297,352.188,152.297z"/>
	</g>
</g>
<g>
	<g>
		<path d="M448.376,296.579c-17.403,0-31.562,14.159-31.562,31.562c0,17.403,14.159,31.562,31.562,31.562
			s31.562-14.159,31.562-31.562C479.937,310.738,465.779,296.579,448.376,296.579z M431.843,328.141
			c0-9.116,7.417-16.532,16.532-16.532c1.777,0,3.487,0.29,5.093,0.812l-20.814,20.814
			C432.133,331.628,431.843,329.918,431.843,328.141z M448.376,344.673c-1.777,0-3.487-0.29-5.093-0.812l20.814-20.814
			c0.522,1.606,0.812,3.315,0.812,5.093C464.908,337.257,457.492,344.673,448.376,344.673z"/>
	</g>
</g>
<g>
	<g>
		<path d="M448.376,224.438c-17.403,0-31.562,14.159-31.562,31.562s14.159,31.562,31.562,31.562s31.562-14.159,31.562-31.562
			S465.779,224.438,448.376,224.438z M431.843,256c0-9.116,7.417-16.532,16.532-16.532c1.777,0,3.487,0.29,5.093,0.812
			l-20.814,20.814C432.133,259.487,431.843,257.777,431.843,256z M448.376,272.532c-1.777,0-3.487-0.29-5.093-0.812l20.814-20.814
			c0.522,1.606,0.812,3.315,0.812,5.093C464.908,265.116,457.492,272.532,448.376,272.532z"/>
	</g>
</g>
<g>
	<g>
		<circle cx="432.344" cy="159.812" r="7.515"/>
	</g>
</g>
<g>
	<g>
		<circle cx="464.908" cy="159.812" r="7.515"/>
	</g>
</g>
<g>
	<g>
		<circle cx="432.344" cy="183.859" r="7.515"/>
	</g>
</g>
<g>
	<g>
		<circle cx="464.908" cy="183.859" r="7.515"/>
	</g>
</g>
<g>
	<g>
		<circle cx="432.344" cy="207.906" r="7.515"/>
	</g>
</g>
<g>
	<g>
		<circle cx="464.908" cy="207.906" r="7.515"/>
	</g>
</g>
<g>
	<g>
		<path d="M219.93,299.585c1.923,0,3.846-0.733,5.314-2.201L219.93,299.585z"/>
	</g>
</g>
<g>
</g>
<g>
</g>
<g>
</g>
<g>
</g>
<g>
</g>
<g>
</g>
<g>
</g>
<g>
</g>
<g>
</g>
<g>
</g>
<g>
</g>
<g>
</g>
<g>
</g>
<g>
</g>
<g>
</g>
</svg>
