<svg id="Layer_37" enable-background="new 0 0 64 64" height="512" viewBox="0 0 64 64" width="512" xmlns="http://www.w3.org/2000/svg"><g><path d="m32 38c2.206 0 4-1.794 4-4 0-1.202-1.809-8-4-8s-4 6.798-4 8c0 2.206 1.794 4 4 4zm0-9.701c.786 1.205 2 4.543 2 5.701 0 1.103-.897 2-2 2s-2-.897-2-2c0-1.158 1.214-4.496 2-5.701z"/><path d="m27 40h10v2h-10z"/><path d="m27 44h10v2h-10z"/><path d="m29 48h6v2h-6z"/><path d="m32 20c-5.961 0-9.887 3.524-9.999 9.04l.892 22.099c.075 2.726 2.271 4.861 4.998 4.861h8.219c2.727 0 4.922-2.135 4.998-4.849l.892-22.172c-.113-5.455-4.039-8.979-10-8.979zm7.108 31.084c-.045 1.635-1.362 2.916-2.999 2.916h-8.219c-1.636 0-2.954-1.281-3-2.929l-.89-22.05c.09-4.331 3.155-7.021 8-7.021s7.91 2.69 8.001 6.96z"/><path d="m45.178 7.694c-.156-1.536-1.438-2.694-2.985-2.694h-1.193v-2c0-1.103-.961-2-2.143-2h-13.714c-1.182 0-2.143.897-2.143 2v2h-1.193c-1.546 0-2.829 1.158-2.984 2.694-.663 6.553-2.823 28.464-2.823 35.306 0 6.918 1.672 20 8 20h16c6.328 0 8-13.082 8-20 0-6.842-2.16-28.753-2.822-35.306zm-20.191-4.642c.008-.011.058-.052.156-.052h13.714c.088 0 .137.032.143.01v1.99h-14.004zm4.013 3.948h6v2h-6zm-7.193 0h5.193v2c0 1.103.897 2 2 2h6c1.103 0 2-.897 2-2v-2h5.193c.515 0 .943.385.994.896.177 1.749.461 4.601.782 7.962-1.737-1.25-4.624-2.858-7.969-2.858h-8c-3.345 0-6.232 1.608-7.97 2.857.321-3.361.605-6.213.782-7.962.052-.51.48-.895.995-.895zm18.193 54h-16c-3.706 0-6-9.344-6-18 0-4.457.939-15.489 1.767-24.35.489-.461 4.026-3.65 8.233-3.65h8c4.207 0 7.744 3.189 8.233 3.65.828 8.861 1.767 19.893 1.767 24.35 0 8.656-2.294 18-6 18z"/></g></svg>